<svg width="24" height="21" viewBox="0 0 24 21" fill="none" xmlns="http://www.w3.org/2000/svg">
<path d="M12 12.7998C12.4142 12.7998 12.75 12.464 12.75 12.0498C12.75 11.6356 12.4142 11.2998 12 11.2998C11.5858 11.2998 11.25 11.6356 11.25 12.0498C11.25 12.464 11.5858 12.7998 12 12.7998Z" fill="white"/>
<path d="M21.75 10.0473L14.25 12.1923C14.25 12.789 14.0129 13.3613 13.591 13.7833C13.169 14.2053 12.5967 14.4423 12 14.4423C11.4033 14.4423 10.831 14.2053 10.409 13.7833C9.98705 13.3613 9.75 12.789 9.75 12.1923L2.25 10.0473L0.75 9.6123V18.0498C0.75 18.6465 0.987053 19.2188 1.40901 19.6408C1.83097 20.0628 2.40326 20.2998 3 20.2998H21C21.5967 20.2998 22.169 20.0628 22.591 19.6408C23.0129 19.2188 23.25 18.6465 23.25 18.0498V9.6123L21.75 10.0473Z" fill="white"/>
<path d="M21 3.7998H16.5V3.0498C16.5 2.45307 16.2629 1.88077 15.841 1.45881C15.419 1.03686 14.8467 0.799805 14.25 0.799805H9.75C9.15326 0.799805 8.58097 1.03686 8.15901 1.45881C7.73705 1.88077 7.5 2.45307 7.5 3.0498V3.7998H3C2.40326 3.7998 1.83097 4.03686 1.40901 4.45881C0.987053 4.88077 0.75 5.45307 0.75 6.0498V8.0523L2.25 8.4873L10.17 10.7373C10.3782 10.4462 10.6529 10.209 10.9711 10.0454C11.2894 9.88172 11.6421 9.79635 12 9.79635C12.3579 9.79635 12.7106 9.88172 13.0289 10.0454C13.3471 10.209 13.6218 10.4462 13.83 10.7373L21.75 8.4873L23.25 8.0523V6.0498C23.25 5.45307 23.0129 4.88077 22.591 4.45881C22.169 4.03686 21.5967 3.7998 21 3.7998ZM9 3.0498C9 2.85089 9.07902 2.66013 9.21967 2.51947C9.36032 2.37882 9.55109 2.2998 9.75 2.2998H14.25C14.4489 2.2998 14.6397 2.37882 14.7803 2.51947C14.921 2.66013 15 2.85089 15 3.0498V3.7998H9V3.0498Z" fill="white"/>
</svg>
