<svg width="22" height="25" viewBox="0 0 22 25" fill="none" xmlns="http://www.w3.org/2000/svg">
<path fill-rule="evenodd" clip-rule="evenodd" d="M2.4 0.549805C1.73726 0.549805 1.2 1.08707 1.2 1.7498V23.3498H0.6C0.268632 23.3498 0 23.6185 0 23.9498C0 24.2811 0.268632 24.5498 0.6 24.5498H5.4V20.9498C5.4 20.287 5.93726 19.7498 6.6 19.7498H9C9.66276 19.7498 10.2 20.287 10.2 20.9498V24.5498H21C21.3313 24.5498 21.6 24.2811 21.6 23.9498C21.6 23.6185 21.3313 23.3498 21 23.3498H20.4V5.3498C20.4 4.68707 19.8628 4.1498 19.2 4.1498H14.4V1.7498C14.4 1.08707 13.8628 0.549805 13.2 0.549805H2.4ZM5.4 4.1498C5.06863 4.1498 4.8 4.41844 4.8 4.7498V5.9498C4.8 6.28117 5.06863 6.5498 5.4 6.5498H6.6C6.93137 6.5498 7.2 6.28117 7.2 5.9498V4.7498C7.2 4.41844 6.93137 4.1498 6.6 4.1498H5.4ZM4.8 8.3498C4.8 8.01844 5.06863 7.7498 5.4 7.7498H6.6C6.93137 7.7498 7.2 8.01844 7.2 8.3498V9.54981C7.2 9.88117 6.93137 10.1498 6.6 10.1498H5.4C5.06863 10.1498 4.8 9.88117 4.8 9.54981V8.3498ZM5.4 11.3498C5.06863 11.3498 4.8 11.6185 4.8 11.9498V13.1498C4.8 13.4811 5.06863 13.7498 5.4 13.7498H6.6C6.93137 13.7498 7.2 13.4811 7.2 13.1498V11.9498C7.2 11.6185 6.93137 11.3498 6.6 11.3498H5.4ZM4.8 15.5498C4.8 15.2185 5.06863 14.9498 5.4 14.9498H6.6C6.93137 14.9498 7.2 15.2185 7.2 15.5498V16.7498C7.2 17.0811 6.93137 17.3498 6.6 17.3498H5.4C5.06863 17.3498 4.8 17.0811 4.8 16.7498V15.5498ZM9 4.1498C8.66868 4.1498 8.4 4.41844 8.4 4.7498V5.9498C8.4 6.28117 8.66868 6.5498 9 6.5498H10.2C10.5313 6.5498 10.8 6.28117 10.8 5.9498V4.7498C10.8 4.41844 10.5313 4.1498 10.2 4.1498H9ZM15.6 8.3498C15.6 8.01844 15.8687 7.7498 16.2 7.7498H17.4C17.7313 7.7498 18 8.01844 18 8.3498V9.54981C18 9.88117 17.7313 10.1498 17.4 10.1498H16.2C15.8687 10.1498 15.6 9.88117 15.6 9.54981V8.3498ZM16.2 11.3498C15.8687 11.3498 15.6 11.6185 15.6 11.9498V13.1498C15.6 13.4811 15.8687 13.7498 16.2 13.7498H17.4C17.7313 13.7498 18 13.4811 18 13.1498V11.9498C18 11.6185 17.7313 11.3498 17.4 11.3498H16.2ZM15.6 15.5498C15.6 15.2185 15.8687 14.9498 16.2 14.9498H17.4C17.7313 14.9498 18 15.2185 18 15.5498V16.7498C18 17.0811 17.7313 17.3498 17.4 17.3498H16.2C15.8687 17.3498 15.6 17.0811 15.6 16.7498V15.5498ZM16.2 18.5498C15.8687 18.5498 15.6 18.8185 15.6 19.1498V20.3498C15.6 20.6811 15.8687 20.9498 16.2 20.9498H17.4C17.7313 20.9498 18 20.6811 18 20.3498V19.1498C18 18.8185 17.7313 18.5498 17.4 18.5498H16.2ZM8.4 8.3498C8.4 8.01844 8.66868 7.7498 9 7.7498H10.2C10.5313 7.7498 10.8 8.01844 10.8 8.3498V9.54981C10.8 9.88117 10.5313 10.1498 10.2 10.1498H9C8.66868 10.1498 8.4 9.88117 8.4 9.54981V8.3498ZM9 11.3498C8.66868 11.3498 8.4 11.6185 8.4 11.9498V13.1498C8.4 13.4811 8.66868 13.7498 9 13.7498H10.2C10.5313 13.7498 10.8 13.4811 10.8 13.1498V11.9498C10.8 11.6185 10.5313 11.3498 10.2 11.3498H9ZM8.4 15.5498C8.4 15.2185 8.66868 14.9498 9 14.9498H10.2C10.5313 14.9498 10.8 15.2185 10.8 15.5498V16.7498C10.8 17.0811 10.5313 17.3498 10.2 17.3498H9C8.66868 17.3498 8.4 17.0811 8.4 16.7498V15.5498Z" fill="white"/>
<path d="M9.00156 24.5502V20.9502H6.60156V24.5502H9.00156Z" fill="white"/>
</svg>
