<svg width="40" height="40" viewBox="0 0 40 40" fill="none" xmlns="http://www.w3.org/2000/svg">
<rect width="40" height="40" rx="20" fill="#444444"/>
<path d="M21.0601 20L25.4801 15.58C25.5538 15.5113 25.6129 15.4285 25.6539 15.3365C25.6949 15.2445 25.7169 15.1452 25.7187 15.0445C25.7205 14.9438 25.702 14.8437 25.6642 14.7504C25.6265 14.657 25.5704 14.5721 25.4992 14.5009C25.4279 14.4297 25.3431 14.3736 25.2497 14.3358C25.1563 14.2981 25.0563 14.2796 24.9556 14.2814C24.8549 14.2831 24.7556 14.3052 24.6636 14.3462C24.5716 14.3872 24.4888 14.4463 24.4201 14.52L20.0001 18.94L15.5801 14.52C15.4379 14.3875 15.2499 14.3154 15.0556 14.3188C14.8613 14.3222 14.6759 14.4009 14.5385 14.5383C14.4011 14.6757 14.3224 14.8611 14.3189 15.0554C14.3155 15.2497 14.3876 15.4378 14.5201 15.58L18.9401 20L14.5201 24.42C14.3797 24.5606 14.3008 24.7512 14.3008 24.95C14.3008 25.1487 14.3797 25.3393 14.5201 25.48C14.6607 25.6204 14.8514 25.6993 15.0501 25.6993C15.2489 25.6993 15.4395 25.6204 15.5801 25.48L20.0001 21.06L24.4201 25.48C24.5607 25.6204 24.7514 25.6993 24.9501 25.6993C25.1489 25.6993 25.3395 25.6204 25.4801 25.48C25.6206 25.3393 25.6995 25.1487 25.6995 24.95C25.6995 24.7512 25.6206 24.5606 25.4801 24.42L21.0601 20Z" fill="white"/>
</svg>
