<svg width="24" height="20" viewBox="0 0 24 20" fill="none" xmlns="http://www.w3.org/2000/svg">
<path d="M12.0003 3.85547L3.4408 10.9119C3.4408 10.9218 3.4383 10.9365 3.43329 10.9564C3.42839 10.9763 3.42578 10.9907 3.42578 11.0009V18.1462C3.42578 18.4042 3.5201 18.6278 3.70869 18.8161C3.89723 19.0045 4.1205 19.0992 4.37854 19.0992H10.0947V13.3828H13.9059V19.0995H19.622C19.88 19.0995 20.1036 19.0049 20.2919 18.8161C20.4805 18.628 20.5751 18.4043 20.5751 18.1462V11.0009C20.5751 10.9612 20.5697 10.9313 20.5601 10.9119L12.0003 3.85547Z" fill="white"/>
<path d="M23.8344 9.30411L20.5745 6.5948V0.521142C20.5745 0.382292 20.5299 0.268105 20.4403 0.178737C20.3515 0.0894727 20.2373 0.0448406 20.0981 0.0448406H17.24C17.101 0.0448406 16.9869 0.0894727 16.8974 0.178737C16.8082 0.268105 16.7637 0.382344 16.7637 0.521142V3.42395L13.1315 0.387037C12.8142 0.128995 12.4371 0 12.0003 0C11.5637 0 11.1865 0.128995 10.869 0.387037L0.165418 9.30411C0.0661949 9.38337 0.0118127 9.49005 0.00169755 9.62405C-0.0083655 9.75794 0.0263077 9.87489 0.105821 9.97406L1.02875 11.0757C1.10827 11.1649 1.21234 11.2195 1.34139 11.2395C1.46053 11.2495 1.57967 11.2147 1.69881 11.1353L12 2.54564L22.3014 11.1353C22.3809 11.2045 22.4849 11.2391 22.614 11.2391H22.6587C22.7876 11.2195 22.8914 11.1645 22.9714 11.0755L23.8944 9.97401C23.9738 9.87463 24.0085 9.75789 23.9982 9.62384C23.988 9.4902 23.9334 9.38352 23.8344 9.30411Z" fill="white"/>
</svg>
