<svg width="24" height="24" viewBox="0 0 24 24" fill="none" xmlns="http://www.w3.org/2000/svg">
<path d="M21.1098 17.5756C22.1394 15.8983 22.683 13.9681 22.6803 12V11.9996C22.683 10.0316 22.1393 8.10135 21.1098 6.42403L21.1039 6.41487C20.1488 4.85808 18.8103 3.57225 17.2165 2.68024C15.6227 1.78822 13.8268 1.31983 12.0003 1.31982C10.1739 1.31982 8.37796 1.78819 6.78415 2.68019C5.19033 3.57219 3.85189 4.85802 2.89672 6.4148L2.89079 6.42407C1.86379 8.10254 1.32032 10.0321 1.32031 11.9998C1.3203 13.9675 1.86376 15.897 2.89074 17.5755L2.89678 17.5849C3.85195 19.1417 5.19039 20.4275 6.78419 21.3195C8.378 22.2115 10.1739 22.6798 12.0004 22.6798C13.8268 22.6798 15.6227 22.2114 17.2165 21.3194C18.8103 20.4274 20.1487 19.1416 21.1039 17.5848L21.1098 17.5756ZM13.3655 20.8494C13.1619 21.0458 12.9277 21.2075 12.672 21.3283C12.4621 21.4281 12.2327 21.4798 12.0003 21.4798C11.7679 21.4798 11.5385 21.4281 11.3286 21.3283C10.842 21.0798 10.4255 20.7132 10.1171 20.2622C9.48722 19.3521 9.02046 18.3393 8.73764 17.2692C9.8241 17.2024 10.9117 17.1683 12.0003 17.1671C13.0885 17.1671 14.1761 17.2011 15.2632 17.2692C15.1066 17.8194 14.9111 18.3578 14.678 18.8802C14.3712 19.6149 13.9255 20.2835 13.3655 20.8494ZM2.54119 12.5998H6.84895C6.877 13.8018 7.00729 14.9993 7.23841 16.1792C6.06084 16.2829 4.88627 16.4252 3.71471 16.6062C3.02867 15.3754 2.62764 14.0063 2.54119 12.5998ZM3.71471 7.39345C4.8858 7.57492 6.06078 7.71728 7.23964 7.82051C7.00807 9.00035 6.87749 10.1978 6.84934 11.3998H2.54119C2.62764 9.99338 3.02867 8.62427 3.71471 7.39345ZM10.6352 3.15022C10.8387 2.95385 11.0729 2.79207 11.3286 2.67127C11.5385 2.57155 11.7679 2.51981 12.0003 2.51981C12.2327 2.51981 12.4621 2.57155 12.672 2.67127C13.1586 2.91982 13.5751 3.28638 13.8835 3.73743C14.5134 4.64757 14.9801 5.66031 15.263 6.73038C14.1765 6.79724 13.089 6.8313 12.0003 6.83256C10.9121 6.83254 9.82449 6.79848 8.73745 6.73037C8.89399 6.18019 9.08953 5.64185 9.32258 5.11945C9.62944 4.38477 10.0751 3.71615 10.6352 3.15022ZM21.4594 11.3998H17.1517C17.1236 10.1978 16.9933 9.00034 16.7622 7.8204C17.9398 7.71678 19.1144 7.57446 20.2859 7.39344C20.972 8.62426 21.373 9.99337 21.4594 11.3998ZM8.44533 16.0859C8.21065 14.9379 8.07811 13.7713 8.04926 12.5998H15.9515C15.9229 13.7713 15.7906 14.9379 15.5561 16.086C14.3722 16.0083 13.1869 15.9686 12.0003 15.9671C10.8146 15.9671 9.6296 16.0067 8.44533 16.0859ZM15.5553 7.91369C15.7899 9.06177 15.9225 10.2284 15.9513 11.3998H8.04913C8.07772 10.2284 8.21001 9.06175 8.44447 7.91364C9.62845 7.99132 10.8137 8.03096 12.0003 8.03254C13.186 8.03254 14.371 7.99292 15.5553 7.91369ZM17.1513 12.5998H21.4594C21.373 14.0063 20.9719 15.3754 20.2859 16.6062C19.1148 16.4247 17.9398 16.2823 16.761 16.1791C16.9926 14.9993 17.1231 13.8018 17.1513 12.5998ZM19.5664 6.28897C18.5425 6.4367 17.5155 6.55366 16.4854 6.63985C16.3003 5.95059 16.0616 5.27687 15.7713 4.62485C15.5064 4.02485 15.173 3.45746 14.7778 2.93398C16.6877 3.51971 18.3637 4.69393 19.5664 6.28897ZM5.29691 5.29642C6.39249 4.1998 7.74035 3.38867 9.22232 2.93413C9.19984 2.96325 9.17671 2.99108 9.15455 3.0208C8.39281 4.11736 7.83796 5.34393 7.51735 6.64003C6.48725 6.55279 5.45953 6.43577 4.43421 6.28897C4.69865 5.9387 4.9869 5.60707 5.29691 5.29642ZM4.4342 17.7107C5.45811 17.5629 6.4851 17.446 7.51515 17.3598C7.70028 18.049 7.93904 18.7228 8.22926 19.3748C8.49423 19.9748 8.82763 20.5422 9.22282 21.0657C7.31294 20.4799 5.63696 19.3057 4.4342 17.7107ZM18.7037 18.7032C17.6081 19.7998 16.2603 20.611 14.7783 21.0655C14.8008 21.0364 14.8239 21.0086 14.8461 20.9788C15.6078 19.8823 16.1627 18.6557 16.4833 17.3596C17.5134 17.4468 18.5411 17.5639 19.5664 17.7107C19.302 18.0609 19.0137 18.3926 18.7037 18.7032Z" fill="#3A3A3A"/>
</svg>
