<svg width="24" height="24" viewBox="0 0 24 24" fill="none" xmlns="http://www.w3.org/2000/svg">
<g clip-path="url(#clip0_730_2879)">
<path d="M1.50009 6.00049H6.75051C6.89825 6.00049 7.04455 6.02959 7.18105 6.08613C7.31755 6.14267 7.44157 6.22554 7.54604 6.33001C7.65052 6.43448 7.73339 6.55851 7.78993 6.69501C7.84647 6.83151 7.87557 6.9778 7.87557 7.12555V11.2508C7.87557 11.5491 7.75703 11.8353 7.54604 12.0463C7.33504 12.2573 7.04887 12.3758 6.75048 12.3758H1.50006C1.20168 12.3758 0.915512 12.2573 0.704522 12.0463C0.493533 11.8353 0.375 11.5492 0.375 11.2508V7.12558C0.375 6.97783 0.404101 6.83153 0.460642 6.69503C0.517183 6.55852 0.600056 6.4345 0.70453 6.33002C0.809004 6.22555 0.933033 6.14268 1.06953 6.08613C1.20604 6.02959 1.35234 6.00049 1.50009 6.00049Z" fill="#4E4E4E"/>
<path d="M12.375 4.5C13.4105 4.5 14.25 3.66053 14.25 2.625C14.25 1.58947 13.4105 0.75 12.375 0.75C11.3395 0.75 10.5 1.58947 10.5 2.625C10.5 3.66053 11.3395 4.5 12.375 4.5Z" fill="#4E4E4E"/>
<path d="M4.50195 13.4447C4.50206 14.027 4.73103 14.5859 5.13948 15.0008H11.2358V13.4427C11.2358 13.3437 11.1965 13.2487 11.1264 13.1787C11.0564 13.1087 10.9614 13.0693 10.8624 13.0693H4.87534C4.77611 13.0698 4.6811 13.1096 4.61112 13.1799C4.54114 13.2503 4.50188 13.3455 4.50195 13.4447Z" fill="#4E4E4E"/>
<path d="M23.1509 19.2593C22.968 18.5832 22.5579 17.9907 21.9896 17.5814C21.4213 17.1721 20.7294 16.9709 20.0302 17.0117C20.0889 16.7926 20.1192 16.5669 20.1203 16.3401C20.1132 15.9805 20.019 15.628 19.8456 15.3129C19.6723 14.9978 19.4251 14.7294 19.1252 14.5309C18.3198 13.9968 17.7177 12.6382 17.6267 11.2092H18.3449C18.6419 11.2093 18.9267 11.0917 19.137 10.882C19.3473 10.6724 19.4659 10.3879 19.4667 10.0909V9.3462C19.4659 9.04927 19.3473 8.76479 19.137 8.55518C18.9267 8.34557 18.6418 8.22794 18.3449 8.2281H15.7801C13.6117 7.60363 12.9594 6.88442 12.5695 6.45352C12.5615 6.44473 12.5536 6.43595 12.5459 6.42734C12.5848 6.13984 12.5328 5.84736 12.3971 5.59092C12.2614 5.33448 12.0488 5.12694 11.7892 4.99739C11.6039 4.90893 11.401 4.86342 11.1956 4.86427C10.9903 4.86512 10.7877 4.91229 10.6031 5.00229C10.4185 5.09228 10.2566 5.22277 10.1295 5.38403C10.0023 5.54529 9.91316 5.73317 9.86869 5.93366L8.79269 11.075C8.76098 11.2277 8.76156 11.3854 8.79439 11.5378C8.82723 11.6903 8.89159 11.8342 8.98335 11.9604C9.07511 12.0865 9.19224 12.192 9.32721 12.2702C9.46218 12.3484 9.612 12.3975 9.76707 12.4143L11.6107 12.6183C11.7057 12.6284 11.7933 12.6746 11.8552 12.7473C11.9172 12.8201 11.9488 12.9138 11.9436 13.0092L11.6531 17.9239C11.3515 17.6604 11.1371 17.3115 11.0382 16.9234C10.9393 16.5353 10.9606 16.1264 11.0992 15.7507H5.36716C4.76253 16.7522 3.79474 18.6302 4.18632 19.8517C4.25932 20.0816 4.38617 20.2908 4.55632 20.4617C4.72647 20.6327 4.935 20.7606 5.16454 20.8347C5.33311 20.8862 5.50992 20.9054 5.68563 20.8913C5.7282 21.4978 5.99918 22.0657 6.44392 22.4803C6.88867 22.8949 7.47409 23.1255 8.08213 23.1255C8.69017 23.1254 9.27559 22.8949 9.72033 22.4802C10.1651 22.0656 10.436 21.4977 10.4786 20.8912L16.906 20.8911C16.9684 20.8877 17.0296 20.8719 17.0859 20.8446C17.1423 20.8174 17.1926 20.7793 17.2341 20.7325C17.2797 20.954 17.3536 21.1687 17.4542 21.3712C17.4824 21.4302 17.5255 21.4808 17.5794 21.5178C17.6332 21.5549 17.6958 21.5772 17.761 21.5825C17.8261 21.5878 17.8915 21.5759 17.9506 21.5479C18.0097 21.52 18.0604 21.4771 18.0977 21.4234C18.1413 21.3607 18.1887 21.2995 18.2385 21.2393C18.2884 21.5631 18.404 21.8733 18.5783 22.1507C18.7526 22.4281 18.9818 22.6669 19.2519 22.8524C19.522 23.0379 19.8271 23.1661 20.1486 23.2292C20.4701 23.2923 20.8011 23.2889 21.1213 23.2192C21.4414 23.1495 21.7439 23.0151 22.0101 22.824C22.2762 22.633 22.5005 22.3896 22.669 22.1086C22.8376 21.8276 22.9468 21.5152 22.99 21.1904C23.0332 20.8656 23.0094 20.5355 22.9202 20.2202C23.0169 20.2097 23.1056 20.1615 23.1669 20.086C23.2283 20.0105 23.2575 19.9139 23.2481 19.8171C23.2339 19.6285 23.2013 19.4417 23.1509 19.2593ZM8.082 22.3787C7.67231 22.3787 7.27723 22.2265 6.97342 21.9517C6.66962 21.6768 6.47874 21.2989 6.43784 20.8912L9.72634 20.8912C9.68541 21.2989 9.4945 21.6768 9.19066 21.9517C8.88682 22.2265 8.49171 22.3787 8.082 22.3787ZM15.3522 18.2824H13.8953L14.5395 12.1925C14.5653 11.9459 14.5083 11.6977 14.3776 11.487C14.2468 11.2762 14.0497 11.1149 13.8173 11.0285L11.9797 10.3427C11.8952 10.3114 11.825 10.2504 11.7821 10.1712C11.7392 10.092 11.7265 9.9999 11.7464 9.91203L12.026 8.70641C12.982 9.46865 14.1362 9.9413 15.3522 10.0685V18.2824ZM20.822 22.4895C20.5732 22.5222 20.3202 22.4979 20.0822 22.4185C19.8441 22.339 19.6273 22.2065 19.4481 22.0308C19.2688 21.8552 19.1319 21.6411 19.0476 21.4048C18.9633 21.1684 18.9338 20.916 18.9615 20.6666L19.0757 20.5244C19.9345 19.9921 20.9577 19.7908 21.9541 19.9582L22.0426 20.0266C22.1788 20.2621 22.2546 20.5277 22.2633 20.7997C22.272 21.0716 22.2134 21.3415 22.0925 21.5853C21.9717 21.8291 21.7925 22.0392 21.5708 22.1969C21.3491 22.3547 21.0919 22.4552 20.822 22.4895Z" fill="#4E4E4E"/>
</g>
<defs>
<clipPath id="clip0_730_2879">
<rect width="24" height="24" fill="white"/>
</clipPath>
</defs>
</svg>
