<svg width="24" height="24" viewBox="0 0 24 24" fill="none" xmlns="http://www.w3.org/2000/svg">
<g clip-path="url(#clip0_730_2886)">
<path d="M22.3633 19.6364H18.5452C16.1391 19.6364 14.1816 17.6789 14.1816 15.2728C14.1816 12.8668 16.1391 10.9093 18.5452 10.9093H22.3633C22.6648 10.9093 22.9088 10.6653 22.9088 10.3638V8.7275C22.9088 7.5837 22.0216 6.6535 20.9006 6.56329L17.7681 1.09179C17.4778 0.585754 17.009 0.224073 16.4481 0.0738875C15.8899 -0.0752748 15.3061 0.00306481 14.8064 0.293873L4.06783 6.5457H2.1818C0.978529 6.5457 0 7.52418 0 8.7275V21.8182C0 23.0215 0.978478 24 2.1818 24H20.727C21.9302 24 22.9088 23.0215 22.9088 21.8182V20.1819C22.9088 19.8804 22.6648 19.6364 22.3633 19.6364ZM18.4445 4.4698L19.633 6.5457H14.8789L18.4445 4.4698ZM6.23598 6.5457L15.3556 1.23666C15.6022 1.0923 15.8904 1.05395 16.1658 1.12748C16.4444 1.20204 16.6766 1.38209 16.821 1.63403L16.8221 1.63603L8.38935 6.5457H6.23598Z" fill="#4E4E4E"/>
<path d="M22.3642 12H18.5461C16.7414 12 15.2734 13.468 15.2734 15.2727C15.2734 17.0773 16.7414 18.5453 18.5461 18.5453H22.3642C23.2666 18.5453 24.0006 17.8113 24.0006 16.909V13.6363C24.0006 12.734 23.2666 12 22.3642 12ZM18.5461 16.3635C17.9448 16.3635 17.4552 15.874 17.4552 15.2727C17.4552 14.6713 17.9448 14.1818 18.5461 14.1818C19.1475 14.1818 19.637 14.6713 19.637 15.2727C19.637 15.874 19.1475 16.3635 18.5461 16.3635Z" fill="#4E4E4E"/>
</g>
<defs>
<clipPath id="clip0_730_2886">
<rect width="24" height="24" fill="white"/>
</clipPath>
</defs>
</svg>
