<svg width="22" height="24" viewBox="0 0 22 24" fill="none" xmlns="http://www.w3.org/2000/svg">
<path fill-rule="evenodd" clip-rule="evenodd" d="M2.4 0C1.73726 0 1.2 0.537264 1.2 1.2V22.8H0.6C0.268632 22.8 0 23.0687 0 23.4C0 23.7313 0.268632 24 0.6 24H5.4V20.4C5.4 19.7372 5.93726 19.2 6.6 19.2H9C9.66276 19.2 10.2 19.7372 10.2 20.4V24H21C21.3313 24 21.6 23.7313 21.6 23.4C21.6 23.0687 21.3313 22.8 21 22.8H20.4V4.8C20.4 4.13726 19.8628 3.6 19.2 3.6H14.4V1.2C14.4 0.537264 13.8628 0 13.2 0H2.4ZM5.4 3.6C5.06863 3.6 4.8 3.86863 4.8 4.2V5.4C4.8 5.73137 5.06863 6 5.4 6H6.6C6.93137 6 7.2 5.73137 7.2 5.4V4.2C7.2 3.86863 6.93137 3.6 6.6 3.6H5.4ZM4.8 7.8C4.8 7.46863 5.06863 7.2 5.4 7.2H6.6C6.93137 7.2 7.2 7.46863 7.2 7.8V9C7.2 9.33137 6.93137 9.6 6.6 9.6H5.4C5.06863 9.6 4.8 9.33137 4.8 9V7.8ZM5.4 10.8C5.06863 10.8 4.8 11.0687 4.8 11.4V12.6C4.8 12.9313 5.06863 13.2 5.4 13.2H6.6C6.93137 13.2 7.2 12.9313 7.2 12.6V11.4C7.2 11.0687 6.93137 10.8 6.6 10.8H5.4ZM4.8 15C4.8 14.6687 5.06863 14.4 5.4 14.4H6.6C6.93137 14.4 7.2 14.6687 7.2 15V16.2C7.2 16.5313 6.93137 16.8 6.6 16.8H5.4C5.06863 16.8 4.8 16.5313 4.8 16.2V15ZM9 3.6C8.66868 3.6 8.4 3.86863 8.4 4.2V5.4C8.4 5.73137 8.66868 6 9 6H10.2C10.5313 6 10.8 5.73137 10.8 5.4V4.2C10.8 3.86863 10.5313 3.6 10.2 3.6H9ZM15.6 7.8C15.6 7.46863 15.8687 7.2 16.2 7.2H17.4C17.7313 7.2 18 7.46863 18 7.8V9C18 9.33137 17.7313 9.6 17.4 9.6H16.2C15.8687 9.6 15.6 9.33137 15.6 9V7.8ZM16.2 10.8C15.8687 10.8 15.6 11.0687 15.6 11.4V12.6C15.6 12.9313 15.8687 13.2 16.2 13.2H17.4C17.7313 13.2 18 12.9313 18 12.6V11.4C18 11.0687 17.7313 10.8 17.4 10.8H16.2ZM15.6 15C15.6 14.6687 15.8687 14.4 16.2 14.4H17.4C17.7313 14.4 18 14.6687 18 15V16.2C18 16.5313 17.7313 16.8 17.4 16.8H16.2C15.8687 16.8 15.6 16.5313 15.6 16.2V15ZM16.2 18C15.8687 18 15.6 18.2687 15.6 18.6V19.8C15.6 20.1313 15.8687 20.4 16.2 20.4H17.4C17.7313 20.4 18 20.1313 18 19.8V18.6C18 18.2687 17.7313 18 17.4 18H16.2ZM8.4 7.8C8.4 7.46863 8.66868 7.2 9 7.2H10.2C10.5313 7.2 10.8 7.46863 10.8 7.8V9C10.8 9.33137 10.5313 9.6 10.2 9.6H9C8.66868 9.6 8.4 9.33137 8.4 9V7.8ZM9 10.8C8.66868 10.8 8.4 11.0687 8.4 11.4V12.6C8.4 12.9313 8.66868 13.2 9 13.2H10.2C10.5313 13.2 10.8 12.9313 10.8 12.6V11.4C10.8 11.0687 10.5313 10.8 10.2 10.8H9ZM8.4 15C8.4 14.6687 8.66868 14.4 9 14.4H10.2C10.5313 14.4 10.8 14.6687 10.8 15V16.2C10.8 16.5313 10.5313 16.8 10.2 16.8H9C8.66868 16.8 8.4 16.5313 8.4 16.2V15Z" fill="#4E4E4E"/>
<path d="M9.00156 24.0004V20.4004H6.60156V24.0004H9.00156Z" fill="#4E4E4E"/>
</svg>
