<svg width="24" height="24" viewBox="0 0 24 24" fill="none" xmlns="http://www.w3.org/2000/svg">
<path d="M12.0003 6.30566L3.4408 13.3621C3.4408 13.372 3.4383 13.3867 3.43329 13.4066C3.42839 13.4265 3.42578 13.4408 3.42578 13.4511V20.5964C3.42578 20.8544 3.5201 21.078 3.70869 21.2663C3.89723 21.4546 4.1205 21.5494 4.37854 21.5494H10.0947V15.833H13.9059V21.5496H19.622C19.88 21.5496 20.1036 21.4551 20.2919 21.2663C20.4805 21.0782 20.5751 20.8545 20.5751 20.5964V13.4511C20.5751 13.4114 20.5697 13.3815 20.5601 13.3621L12.0003 6.30566Z" fill="#4E4E4E"/>
<path d="M23.8344 11.7543L20.5745 9.045V2.97134C20.5745 2.83249 20.5299 2.7183 20.4403 2.62893C20.3515 2.53967 20.2373 2.49504 20.0981 2.49504H17.24C17.101 2.49504 16.9869 2.53967 16.8974 2.62893C16.8082 2.7183 16.7637 2.83254 16.7637 2.97134V5.87414L13.1315 2.83723C12.8142 2.57919 12.4371 2.4502 12.0003 2.4502C11.5637 2.4502 11.1865 2.57919 10.869 2.83723L0.165418 11.7543C0.0661949 11.8336 0.0118127 11.9402 0.00169755 12.0742C-0.0083655 12.2081 0.0263077 12.3251 0.105821 12.4243L1.02875 13.5259C1.10827 13.6151 1.21234 13.6697 1.34139 13.6897C1.46053 13.6997 1.57967 13.6649 1.69881 13.5855L12 4.99584L22.3014 13.5855C22.3809 13.6547 22.4849 13.6893 22.614 13.6893H22.6587C22.7876 13.6697 22.8914 13.6147 22.9714 13.5257L23.8944 12.4242C23.9738 12.3248 24.0085 12.2081 23.9982 12.074C23.988 11.9404 23.9334 11.8337 23.8344 11.7543Z" fill="#4E4E4E"/>
</svg>
