<svg width="24" height="24" viewBox="0 0 24 24" fill="none" xmlns="http://www.w3.org/2000/svg">
<path d="M12 14.25C12.4142 14.25 12.75 13.9142 12.75 13.5C12.75 13.0858 12.4142 12.75 12 12.75C11.5858 12.75 11.25 13.0858 11.25 13.5C11.25 13.9142 11.5858 14.25 12 14.25Z" fill="#4E4E4E"/>
<path d="M21.75 11.4975L14.25 13.6425C14.25 14.2392 14.0129 14.8115 13.591 15.2335C13.169 15.6554 12.5967 15.8925 12 15.8925C11.4033 15.8925 10.831 15.6554 10.409 15.2335C9.98705 14.8115 9.75 14.2392 9.75 13.6425L2.25 11.4975L0.75 11.0625V19.5C0.75 20.0967 0.987053 20.669 1.40901 21.091C1.83097 21.5129 2.40326 21.75 3 21.75H21C21.5967 21.75 22.169 21.5129 22.591 21.091C23.0129 20.669 23.25 20.0967 23.25 19.5V11.0625L21.75 11.4975Z" fill="#4E4E4E"/>
<path d="M21 5.25H16.5V4.5C16.5 3.90326 16.2629 3.33097 15.841 2.90901C15.419 2.48705 14.8467 2.25 14.25 2.25H9.75C9.15326 2.25 8.58097 2.48705 8.15901 2.90901C7.73705 3.33097 7.5 3.90326 7.5 4.5V5.25H3C2.40326 5.25 1.83097 5.48705 1.40901 5.90901C0.987053 6.33097 0.75 6.90326 0.75 7.5V9.5025L2.25 9.9375L10.17 12.1875C10.3782 11.8964 10.6529 11.6592 10.9711 11.4956C11.2894 11.3319 11.6421 11.2465 12 11.2465C12.3579 11.2465 12.7106 11.3319 13.0289 11.4956C13.3471 11.6592 13.6218 11.8964 13.83 12.1875L21.75 9.9375L23.25 9.5025V7.5C23.25 6.90326 23.0129 6.33097 22.591 5.90901C22.169 5.48705 21.5967 5.25 21 5.25ZM9 4.5C9 4.30109 9.07902 4.11032 9.21967 3.96967C9.36032 3.82902 9.55109 3.75 9.75 3.75H14.25C14.4489 3.75 14.6397 3.82902 14.7803 3.96967C14.921 4.11032 15 4.30109 15 4.5V5.25H9V4.5Z" fill="#4E4E4E"/>
</svg>
